<svg width="26" height="27" viewBox="0 0 26 27" fill="none" xmlns="http://www.w3.org/2000/svg">
<path fill-rule="evenodd" clip-rule="evenodd" d="M1.33017 20.3805C-0.0159386 21.7805 -0.0159385 24.0502 1.33017 25.4502C2.67628 26.8502 4.85876 26.8502 6.20487 25.4502L12.8206 18.5699L19.4362 25.4502C20.7824 26.8502 22.9648 26.8502 24.3109 25.4502C25.6571 24.0502 25.6571 21.7805 24.3109 20.3805L17.6953 13.5002L24.3109 6.61986C25.657 5.2199 25.657 2.95011 24.3109 1.55015C22.9648 0.150188 20.7823 0.150187 19.4362 1.55015L12.8206 8.43045L6.2049 1.55015C4.85879 0.150187 2.67632 0.150188 1.3302 1.55015C-0.0159073 2.95011 -0.015908 5.2199 1.3302 6.61986L7.94585 13.5002L1.33017 20.3805Z" fill="black"/>
</svg>
