<svg width="92" height="98" viewBox="0 0 92 98" fill="none" xmlns="http://www.w3.org/2000/svg">
<g clip-path="url(#clip0_308_23)">
<path d="M60.4044 49.9839C63.8162 44.3964 65.5833 37.9654 65.5138 31.384C65.4805 28.3021 65.0415 25.2648 64.2274 22.336C63.1772 22.8956 62.152 23.5164 61.1629 24.1985C61.7325 26.5287 62.0436 28.948 62.0686 31.4202C62.1826 42.0773 57.0176 51.8631 48.3852 57.7707C48.5741 58.5363 48.7908 59.2991 49.0381 60.0564C49.5604 60.1956 50.0828 60.3153 50.6051 60.4266C54.5365 57.6677 57.8789 54.1181 60.4044 49.9839V49.9839Z" fill="#FF6685"/>
<path d="M46.1764 62.3253L46.0958 62.6316L45.3818 62.91L45.9541 63.1939L46.4848 62.9183L46.3764 62.8849L46.1764 62.3253Z" fill="#FF6685"/>
<path d="M45.3262 3.88647C52.2888 7.58083 57.4704 13.6137 60.1099 20.7575C61.0851 20.1311 62.0936 19.5548 63.1244 19.0286C62.2937 16.8961 61.2546 14.8415 60.0099 12.8955C56.5786 7.5335 51.7553 3.20717 46.068 0.386982L45.2818 -0.0027771L44.5066 0.403686C38.8776 3.34637 34.1516 7.77292 30.8343 13.2073C29.3173 15.6934 28.1281 18.3465 27.278 21.1027C28.3365 21.5955 29.3728 22.1439 30.3786 22.7425C32.6291 14.822 37.9163 8.01792 45.3262 3.88368V3.88647Z" fill="#FF6685"/>
<path d="M29.17 31.771C29.1505 29.9168 29.2922 28.0905 29.5812 26.306C28.5532 25.6406 27.4946 25.0365 26.4111 24.502C25.9304 26.8906 25.697 29.3405 25.7248 31.8072C25.7943 38.3857 27.6975 44.7806 31.226 50.2929C33.871 54.4243 37.3439 57.9378 41.4003 60.6271C42.0033 60.4489 42.6034 60.2568 43.198 60.0425C43.3619 59.3492 43.498 58.6532 43.6147 57.9572C34.7378 52.2528 29.2839 42.5116 29.17 31.771V31.771Z" fill="#FF6685"/>
<path d="M89.9467 17.7368L89.6522 16.91L88.8132 16.6622C82.723 14.8693 76.2522 14.7691 70.1009 16.3755C68.4255 16.8126 66.7919 17.3777 65.211 18.0542C65.6333 19.1233 66.0056 20.2118 66.3279 21.3143C72.7264 18.5024 79.978 17.8788 86.9933 19.7358C90.5997 30.7548 87.9519 42.7371 79.9835 51.206C73.1293 58.4862 63.4578 61.9773 53.7669 60.9306C52.4749 61.9606 51.1135 62.9072 49.6882 63.7619C52.1249 64.2908 54.6032 64.5553 57.087 64.5553C60.0571 64.5553 63.0299 64.1767 65.9306 63.4194C72.2569 61.7685 77.9831 58.3637 82.4896 53.578C86.9961 48.7895 90.0523 42.8652 91.3276 36.4397C92.5695 30.1924 92.0916 23.7252 89.9495 17.7368H89.9467Z" fill="#FF6685"/>
<path d="M2.27819 17.3331L2.58937 16.5119L3.43399 16.2808C9.55751 14.5993 16.0283 14.6215 22.1491 16.342C23.8161 16.8098 25.4386 17.4055 27.0056 18.1127C26.5639 19.1734 26.1694 20.2536 25.8304 21.3505C19.4846 18.4189 12.247 17.6589 5.19825 19.3877C1.38634 30.3372 3.81185 42.3696 11.6246 50.9833C18.3427 58.3887 27.9475 62.0608 37.6551 61.1922C38.9276 62.2474 40.2723 63.219 41.6782 64.0987C39.2332 64.5804 36.7494 64.8003 34.2655 64.753C31.2954 64.6973 28.3309 64.263 25.4442 63.4528C19.1484 61.6822 13.4889 58.1744 9.07129 53.3024C4.6537 48.4332 1.70863 42.4504 0.552828 36.0026C-0.57241 29.7359 0.0249387 23.2798 2.27819 17.3331Z" fill="#FF6685"/>
<path d="M61.1601 24.2013C62.1492 23.5192 63.1744 22.8984 64.2246 22.3388C63.9134 21.2196 63.5467 20.1144 63.1244 19.0314C62.0908 19.5576 61.0851 20.1339 60.1099 20.7603C60.5238 21.8822 60.8767 23.0292 61.1629 24.2013H61.1601Z" fill="#FF6685"/>
<path d="M48.3852 57.7735C47.9268 58.0881 47.46 58.3915 46.9821 58.6811C46.8071 59.7223 46.5876 60.7579 46.3181 61.7825L46.1764 62.3253L46.3764 62.8849L46.4848 62.9183L46.7321 62.7903C48.0768 62.0859 49.3715 61.2953 50.6079 60.4294C50.0856 60.3181 49.5604 60.1984 49.0409 60.0592C48.7936 59.3019 48.5769 58.5391 48.388 57.7735H48.3852Z" fill="#FF6685"/>
<path d="M30.3758 22.7452C29.37 22.1467 28.3337 21.5982 27.2751 21.1055C27.1029 21.6595 26.9501 22.2219 26.8056 22.7842C27.8697 23.2909 28.9116 23.8588 29.9313 24.488C30.0618 23.9006 30.2119 23.3215 30.3758 22.748V22.7452Z" fill="#FF6685"/>
<path d="M46.1764 62.3253L46.0819 62.0609C45.7291 61.0781 45.429 60.0814 45.1651 59.0764C45.0206 59.8364 44.8511 60.5937 44.6539 61.3454C44.2177 61.5152 43.7787 61.6739 43.3369 61.8242C43.937 62.1694 44.5483 62.498 45.1706 62.807L45.3818 62.9128L46.0958 62.6344L46.1764 62.3281V62.3253Z" fill="#FF6685"/>
<path d="M29.5812 26.3088C29.6812 25.6963 29.7979 25.0894 29.934 24.488C28.9144 23.8589 27.8725 23.2909 26.8084 22.7842C26.6639 23.355 26.5278 23.9257 26.4111 24.502C27.4974 25.0365 28.5532 25.6406 29.5812 26.306V26.3088Z" fill="#FF6685"/>
<path d="M45.165 59.0736C45.1456 59.004 45.1261 58.9344 45.1095 58.862C44.601 58.5725 44.1037 58.2718 43.6175 57.9572C43.5036 58.6532 43.3647 59.3492 43.2007 60.0425C42.6034 60.2568 42.0033 60.4489 41.4031 60.6271C42.0338 61.0447 42.6784 61.4428 43.3369 61.8214C43.7786 61.6711 44.2176 61.5124 44.6538 61.3426C44.8511 60.5909 45.0206 59.8337 45.165 59.0736V59.0736Z" fill="#FF6685"/>
<path d="M45.1928 58.9094C45.1817 58.965 45.1734 59.0179 45.165 59.0736C45.4262 60.0786 45.729 61.0753 46.0819 62.0581L46.1764 62.3225L46.3181 61.7797C46.5876 60.7551 46.8071 59.7195 46.9821 58.6783C46.6292 58.8927 46.2764 59.1042 45.9124 59.3047C45.6707 59.1766 45.4318 59.0402 45.1928 58.9066V58.9094Z" fill="#FF6685"/>
<path d="M45.1095 58.8648C45.1262 58.9344 45.1456 59.004 45.1651 59.0764C45.1762 59.0207 45.1845 58.9678 45.1929 58.9121C45.1651 58.8954 45.1373 58.8815 45.1095 58.8648V58.8648Z" fill="#FF6685"/>
<path d="M25.8304 21.3505C25.8304 21.3505 25.4609 22.787 25.2497 24.5465C25.0386 26.306 21.6934 19.7859 21.6934 19.7859C20.0875 17.9679 25.8332 21.3505 25.8332 21.3505H25.8304Z" fill="#FF6685"/>
<path d="M66.1973 21.0247C66.1973 21.0247 66.3779 22.4975 66.3556 24.2681C66.3334 26.0415 70.5037 20.0169 70.5037 20.0169C72.3319 18.4245 66.1973 21.0247 66.1973 21.0247V21.0247Z" fill="#FF6685"/>
</g>
<path d="M4.32396 90.7613V89.8107C4.64081 89.6273 4.97435 89.4689 5.32456 89.3355C5.69145 89.202 6.04166 89.1187 6.37519 89.0853V74.9268C6.04166 74.8601 5.69145 74.7683 5.32456 74.6516C4.95767 74.5182 4.62414 74.3681 4.32396 74.2013V73.2507H8.35139C8.9851 73.2507 9.58547 73.2257 10.1525 73.1757C10.7195 73.1257 11.3699 73.1007 12.1037 73.1007C12.9041 73.1007 13.6796 73.159 14.4301 73.2758C15.1805 73.3925 15.8476 73.601 16.4313 73.9011C17.015 74.2013 17.4819 74.6266 17.8321 75.1769C18.1823 75.7106 18.3574 76.4027 18.3574 77.2532C18.3574 77.7868 18.2574 78.2871 18.0572 78.7541C17.8738 79.2043 17.607 79.6046 17.2568 79.9548C16.9232 80.305 16.523 80.5969 16.056 80.8303C15.6058 81.0638 15.1138 81.2306 14.5801 81.3306V81.4307C15.1138 81.4974 15.6475 81.6225 16.1811 81.8059C16.7314 81.9894 17.2234 82.2562 17.657 82.6064C18.0906 82.9566 18.4408 83.3985 18.7076 83.9322C18.9911 84.4492 19.1329 85.0662 19.1329 85.7833C19.1329 86.6839 18.9328 87.4593 18.5325 88.1097C18.1323 88.7601 17.5903 89.2938 16.9066 89.7107C16.2395 90.1276 15.4724 90.4361 14.6052 90.6362C13.738 90.8197 12.8374 90.9114 11.9035 90.9114C11.5533 90.9114 11.1698 90.9031 10.7528 90.8864C10.3359 90.8697 9.919 90.853 9.50208 90.8364C9.08516 90.8197 8.67658 90.803 8.27634 90.7863C7.89278 90.7697 7.56758 90.7613 7.30075 90.7613H4.32396ZM11.8785 89.2854C12.9292 89.2854 13.7547 88.9769 14.355 88.3599C14.9554 87.7262 15.2556 86.8923 15.2556 85.8584C15.2556 85.2246 15.1555 84.7077 14.9554 84.3074C14.7553 83.8905 14.4801 83.5653 14.1299 83.3318C13.7797 83.0817 13.3627 82.9149 12.8791 82.8315C12.3955 82.7315 11.8702 82.6814 11.3032 82.6814H9.97737V89.1103C10.2108 89.1604 10.4527 89.202 10.7028 89.2354C10.9696 89.2688 11.3615 89.2854 11.8785 89.2854ZM10.7779 81.0555C11.0614 81.0555 11.3449 81.0471 11.6284 81.0304C11.9119 80.9971 12.1787 80.9637 12.4289 80.9304C13.0792 80.6636 13.6046 80.255 14.0048 79.7046C14.405 79.1376 14.6052 78.4956 14.6052 77.7785C14.6052 76.7278 14.33 75.9607 13.7797 75.4771C13.2293 74.9768 12.5206 74.7266 11.6534 74.7266C11.2865 74.7266 10.9696 74.735 10.7028 74.7517C10.436 74.7683 10.1942 74.7933 9.97737 74.8267V81.0555H10.7779ZM27.7485 90.7613H20.8443V89.7857C21.0944 89.6523 21.3529 89.5439 21.6198 89.4605C21.8866 89.3605 22.1784 89.2688 22.4953 89.1854V80.0298L20.8443 79.8297V78.8541C21.0944 78.7541 21.403 78.654 21.7698 78.554C22.1534 78.4539 22.5536 78.3705 22.9706 78.3038C23.3875 78.2204 23.7961 78.1537 24.1963 78.1037C24.5965 78.037 24.9468 77.9869 25.2469 77.9536H26.0975V89.1854C26.431 89.2688 26.7312 89.3605 26.998 89.4605C27.2648 89.5439 27.515 89.6523 27.7485 89.7857V90.7613ZM22.07 74.1513C22.07 73.5676 22.2701 73.109 22.6704 72.7755C23.0706 72.4419 23.5876 72.2752 24.2213 72.2752C24.855 72.2752 25.372 72.4419 25.7723 72.7755C26.1725 73.109 26.3726 73.5676 26.3726 74.1513C26.3726 74.7183 26.1725 75.1686 25.7723 75.5021C25.372 75.8356 24.855 76.0024 24.2213 76.0024C23.5876 76.0024 23.0706 75.8356 22.6704 75.5021C22.2701 75.1686 22.07 74.7183 22.07 74.1513ZM44.1842 90.7613H37.5552V89.7857C37.772 89.669 37.9804 89.5689 38.1805 89.4856C38.3973 89.3855 38.6475 89.2854 38.931 89.1854V83.3068C38.931 82.2562 38.7809 81.439 38.4807 80.8553C38.1805 80.255 37.6469 79.9548 36.8797 79.9548C36.246 79.9548 35.6957 80.1633 35.2287 80.5802C34.7785 80.9804 34.4366 81.5307 34.2031 82.2312V89.1854C34.47 89.2521 34.7034 89.3355 34.9036 89.4355C35.1204 89.5189 35.3455 89.6356 35.579 89.7857V90.7613H28.95V89.7857C29.3669 89.5689 29.9172 89.3688 30.601 89.1854V80.0298L28.95 79.8297V78.8541C29.1668 78.7541 29.4503 78.6623 29.8005 78.579C30.1507 78.4789 30.5259 78.3872 30.9262 78.3038C31.3431 78.2204 31.76 78.1537 32.1769 78.1037C32.6105 78.037 33.0024 77.9869 33.3526 77.9536H34.2031V80.5301H34.2281C34.5784 79.8297 35.1037 79.2294 35.8041 78.7291C36.5045 78.2121 37.355 77.9536 38.3556 77.9536C39.006 77.9536 39.5897 78.037 40.1067 78.2037C40.6237 78.3538 41.0573 78.629 41.4075 79.0292C41.7744 79.4295 42.0495 79.9715 42.233 80.6552C42.4331 81.3223 42.5332 82.1728 42.5332 83.2068V89.1854C43.2002 89.3021 43.7506 89.5022 44.1842 89.7857V90.7613ZM45.4238 79.8297C45.1736 79.763 44.9401 79.6796 44.7233 79.5796C44.5232 79.4795 44.3148 79.3628 44.098 79.2294V78.2538H50.6769V79.2043C50.3267 79.4378 49.8514 79.6463 49.2511 79.8297L51.7776 86.1085L52.2029 87.7095H52.2529L52.6531 86.0835L54.6043 79.8297C54.104 79.7297 53.6454 79.5295 53.2285 79.2294V78.2538H58.0564V79.2294C57.7062 79.4628 57.2309 79.663 56.6305 79.8297L52.5531 90.7613C52.1528 91.8286 51.7526 92.6958 51.3524 93.3629C50.9521 94.0466 50.5519 94.5886 50.1516 94.9889C49.7514 95.3891 49.3511 95.6643 48.9509 95.8144C48.5507 95.9811 48.1504 96.0895 47.7502 96.1396C47.5834 95.9895 47.4333 95.7977 47.2999 95.5642C47.1665 95.3474 47.0498 95.1056 46.9497 94.8388C46.8496 94.5886 46.7662 94.3301 46.6995 94.0633C46.6328 93.7965 46.5911 93.5463 46.5745 93.3129L46.8997 92.7125H49.9515C50.1016 92.479 50.2267 92.2289 50.3267 91.962C50.4435 91.6952 50.5769 91.295 50.727 90.7613L45.4238 79.8297ZM58.0982 84.5075C58.0982 83.4903 58.2483 82.5814 58.5485 81.7809C58.8654 80.9637 59.3073 80.2717 59.8743 79.7046C60.458 79.1376 61.1584 78.704 61.9756 78.4039C62.7927 78.1037 63.7183 77.9536 64.7522 77.9536C65.9196 77.9536 66.9202 78.1204 67.7541 78.4539C68.6046 78.7707 69.2967 79.221 69.8303 79.8047C70.3806 80.3717 70.7809 81.0638 71.031 81.881C71.2812 82.6814 71.4063 83.557 71.4063 84.5075C71.4063 85.5248 71.2562 86.442 70.956 87.2592C70.6558 88.0597 70.2139 88.7434 69.6302 89.3104C69.0632 89.8775 68.3628 90.3111 67.5289 90.6112C66.7118 90.9114 65.7862 91.0615 64.7522 91.0615C63.6182 91.0615 62.6343 90.9031 61.8005 90.5862C60.9666 90.2527 60.2745 89.8024 59.7242 89.2354C59.1739 88.6517 58.7653 87.9596 58.4985 87.1591C58.2316 86.342 58.0982 85.4581 58.0982 84.5075ZM61.9756 84.5075C61.9756 85.258 62.0173 85.9501 62.1006 86.5838C62.2007 87.2008 62.3675 87.7262 62.6009 88.1598C62.8344 88.5933 63.1513 88.9352 63.5515 89.1854C63.9518 89.4188 64.4687 89.5356 65.1025 89.5356C65.4693 89.5356 65.8029 89.4522 66.1031 89.2854C66.4032 89.102 66.6617 88.8185 66.8785 88.4349C67.0953 88.0347 67.2538 87.5177 67.3538 86.884C67.4705 86.2336 67.5289 85.4414 67.5289 84.5075C67.5289 83.7404 67.4789 83.0483 67.3788 82.4313C67.2954 81.8143 67.137 81.2889 66.9035 80.8553C66.6867 80.4217 66.3866 80.0882 66.003 79.8547C65.6194 79.6046 65.1358 79.4795 64.5521 79.4795C64.1185 79.4795 63.7433 79.5712 63.4264 79.7547C63.1096 79.9214 62.8428 80.2049 62.626 80.6052C62.4092 80.9888 62.2424 81.5057 62.1257 82.1561C62.0256 82.7898 61.9756 83.5736 61.9756 84.5075ZM87.885 90.7613H81.256V89.7857C81.4561 89.669 81.6645 89.5606 81.8813 89.4605C82.0981 89.3605 82.3483 89.2688 82.6318 89.1854V84.1323C82.6318 82.6981 82.49 81.6475 82.2065 80.9804C81.9397 80.2967 81.406 79.9548 80.6056 79.9548C79.9385 79.9548 79.3715 80.1883 78.9045 80.6552C78.4376 81.1055 78.1041 81.6308 77.9039 82.2312V89.1854C78.1708 89.2521 78.4042 89.3271 78.6044 89.4105C78.8212 89.4939 79.0463 89.619 79.2798 89.7857V90.7613H72.6508V89.7857C73.1677 89.5189 73.7181 89.3188 74.3018 89.1854V74.0262L72.4006 73.8261V72.8505C72.6508 72.7504 72.9676 72.6504 73.3512 72.5503C73.7514 72.4503 74.1683 72.3669 74.6019 72.3002C75.0355 72.2168 75.4691 72.1501 75.9027 72.1001C76.3363 72.0333 76.7199 71.9833 77.0534 71.95H77.9039V80.7803H77.929C78.0957 80.3967 78.3209 80.0382 78.6044 79.7046C78.8879 79.3544 79.2047 79.0543 79.5549 78.8041C79.9218 78.5373 80.3137 78.3288 80.7306 78.1787C81.1476 78.0286 81.5895 77.9536 82.0564 77.9536C82.7235 77.9536 83.3155 78.037 83.8325 78.2037C84.3662 78.3538 84.8081 78.629 85.1583 79.0292C85.5085 79.4295 85.7754 79.9715 85.9588 80.6552C86.1422 81.3223 86.234 82.1728 86.234 83.2068V89.1854C86.5175 89.2521 86.801 89.3271 87.0845 89.4105C87.368 89.4939 87.6348 89.619 87.885 89.7857V90.7613Z" fill="black"/>
<defs>
<clipPath id="clip0_308_23">
<rect width="92" height="64.7613" fill="white"/>
</clipPath>
</defs>
</svg>
