<svg width="161" height="42" viewBox="0 0 161 42" fill="none" xmlns="http://www.w3.org/2000/svg">
<g clip-path="url(#clip0_309_191)">
<path d="M29.0998 29.4803C30.7434 26.7886 31.5947 23.6905 31.5612 20.52C31.5451 19.0353 31.3337 17.572 30.9415 16.1611C30.4355 16.4307 29.9417 16.7298 29.4652 17.0584C29.7395 18.1809 29.8895 19.3464 29.9015 20.5374C29.9564 25.6714 27.4682 30.3856 23.3096 33.2316C23.4006 33.6004 23.505 33.9679 23.6241 34.3327C23.8757 34.3998 24.1274 34.4575 24.379 34.5111C26.2729 33.182 27.8831 31.472 29.0998 29.4803Z" fill="#41B6B0"/>
<path d="M22.2456 35.4258L22.2068 35.5733L21.8628 35.7074L22.1385 35.8442L22.3942 35.7115L22.342 35.6954L22.2456 35.4258Z" fill="#41B6B0"/>
<path d="M21.836 7.27304C25.1902 9.05278 27.6864 11.9591 28.958 15.4006C29.4278 15.0988 29.9136 14.8212 30.4102 14.5677C30.01 13.5403 29.5094 12.5506 28.9098 11.6131C27.2568 9.02998 24.9332 6.94579 22.1934 5.58718L21.8146 5.39941L21.4412 5.59523C18.7294 7.01285 16.4527 9.14532 14.8546 11.7633C14.1238 12.961 13.5509 14.2391 13.1414 15.5669C13.6513 15.8043 14.1506 16.0685 14.6351 16.3568C15.7192 12.5412 18.2663 9.26334 21.836 7.2717V7.27304Z" fill="#41B6B0"/>
<path d="M14.0526 20.7064C14.0432 19.8132 14.1115 18.9334 14.2507 18.0737C13.7555 17.7531 13.2455 17.4621 12.7235 17.2046C12.492 18.3553 12.3795 19.5356 12.3929 20.7238C12.4264 23.893 13.3432 26.9737 15.0431 29.6292C16.3173 31.6195 17.9904 33.3121 19.9445 34.6077C20.235 34.5219 20.5241 34.4293 20.8105 34.326C20.8895 33.9921 20.9551 33.6568 21.0113 33.3215C16.7349 30.5734 14.1075 25.8807 14.0526 20.7064Z" fill="#41B6B0"/>
<path d="M43.3316 13.9455L43.1897 13.5472L42.7855 13.4278C39.8516 12.5641 36.7343 12.5158 33.7709 13.2897C32.9638 13.5003 32.1768 13.7725 31.4152 14.0984C31.6187 14.6134 31.798 15.1378 31.9533 15.6689C35.0358 14.3143 38.5292 14.0139 41.9088 14.9085C43.6461 20.2169 42.3706 25.9893 38.5319 30.0691C35.2299 33.5763 30.5707 35.2581 25.9021 34.7539C25.2797 35.2501 24.6239 35.7061 23.9373 36.1178C25.1111 36.3727 26.305 36.5001 27.5016 36.5001C28.9324 36.5001 30.3646 36.3177 31.7619 35.9529C34.8096 35.1576 37.5682 33.5173 39.7391 31.2118C41.9101 28.905 43.3824 26.051 43.9968 22.9555C44.5951 19.9459 44.3649 16.8304 43.3329 13.9455H43.3316Z" fill="#41B6B0"/>
<path d="M1.09765 13.7509L1.24755 13.3553L1.65445 13.244C4.60442 12.4339 7.7217 12.4446 10.6703 13.2735C11.4734 13.4988 12.2551 13.7858 13.01 14.1265C12.7971 14.6375 12.6071 15.1578 12.4438 15.6863C9.38674 14.274 5.90005 13.9079 2.50437 14.7407C0.667998 20.0156 1.83648 25.8121 5.60023 29.9617C8.83664 33.5293 13.4637 35.2983 18.1403 34.8798C18.7533 35.3881 19.4011 35.8562 20.0784 36.28C18.9005 36.512 17.704 36.618 16.5074 36.5952C15.0765 36.5684 13.6484 36.3591 12.2577 35.9689C9.22479 35.1159 6.49834 33.426 4.37019 31.0789C2.24203 28.7332 0.82326 25.851 0.26646 22.7449C-0.275617 19.7259 0.0121522 16.6157 1.09765 13.7509Z" fill="#41B6B0"/>
<path d="M29.4637 17.0594C29.9402 16.7308 30.4341 16.4317 30.94 16.1622C30.7901 15.623 30.6134 15.0906 30.41 14.5688C29.9121 14.8223 29.4276 15.1 28.9578 15.4017C29.1572 15.9422 29.3272 16.4948 29.465 17.0594H29.4637Z" fill="#41B6B0"/>
<path d="M23.3094 33.2329C23.0886 33.3845 22.8637 33.5307 22.6335 33.6701C22.5492 34.1717 22.4435 34.6706 22.3136 35.1642L22.2454 35.4257L22.3417 35.6953L22.3939 35.7114L22.5131 35.6497C23.1609 35.3104 23.7846 34.9295 24.3802 34.5124C24.1286 34.4587 23.8756 34.4011 23.6253 34.334C23.5062 33.9692 23.4018 33.6017 23.3108 33.2329H23.3094Z" fill="#41B6B0"/>
<path d="M14.6337 16.3583C14.1492 16.07 13.65 15.8057 13.14 15.5684C13.057 15.8353 12.9834 16.1062 12.9138 16.3771C13.4264 16.6212 13.9284 16.8948 14.4196 17.1979C14.4825 16.9149 14.5548 16.6359 14.6337 16.3597V16.3583Z" fill="#41B6B0"/>
<path d="M22.2454 35.4255L22.1998 35.2981C22.0299 34.8247 21.8853 34.3445 21.7582 33.8604C21.6886 34.2265 21.6069 34.5913 21.5119 34.9534C21.3017 35.0352 21.0903 35.1117 20.8774 35.1841C21.1665 35.3504 21.461 35.5087 21.7608 35.6575L21.8626 35.7085L22.2065 35.5744L22.2454 35.4268V35.4255Z" fill="#41B6B0"/>
<path d="M14.2508 18.0749C14.299 17.7798 14.3552 17.4874 14.4208 17.1978C13.9296 16.8946 13.4277 16.621 12.915 16.377C12.8454 16.6519 12.7798 16.9268 12.7236 17.2045C13.247 17.462 13.7556 17.753 14.2508 18.0735V18.0749Z" fill="#41B6B0"/>
<path d="M21.7583 33.8591C21.749 33.8256 21.7396 33.792 21.7316 33.7572C21.4866 33.6177 21.247 33.4728 21.0128 33.3213C20.9579 33.6566 20.891 33.9919 20.812 34.3258C20.5243 34.4291 20.2352 34.5216 19.946 34.6075C20.2499 34.8087 20.5604 35.0004 20.8776 35.1828C21.0904 35.1104 21.3019 35.034 21.512 34.9522C21.6071 34.59 21.6887 34.2252 21.7583 33.8591Z" fill="#41B6B0"/>
<path d="M21.7717 33.7803C21.7663 33.8071 21.7623 33.8326 21.7583 33.8594C21.8841 34.3436 22.03 34.8237 22.2 35.2971L22.2455 35.4245L22.3138 35.163C22.4436 34.6695 22.5493 34.1705 22.6337 33.6689C22.4637 33.7722 22.2937 33.8741 22.1183 33.9707C22.0019 33.909 21.8868 33.8433 21.7717 33.7789V33.7803Z" fill="#41B6B0"/>
<path d="M21.7317 33.7588C21.7398 33.7925 21.7492 33.8261 21.7586 33.8611C21.764 33.8342 21.768 33.8086 21.772 33.7817C21.7586 33.7736 21.7451 33.7669 21.7317 33.7588Z" fill="#41B6B0"/>
<path d="M12.4439 15.6862C12.4439 15.6862 12.2659 16.3782 12.1642 17.2258C12.0624 18.0735 10.4509 14.9324 10.4509 14.9324C9.67729 14.0566 12.4452 15.6862 12.4452 15.6862H12.4439Z" fill="#41B6B0"/>
<path d="M31.8904 15.5291C31.8904 15.5291 31.9774 16.2386 31.9667 17.0916C31.956 17.9459 33.965 15.0436 33.965 15.0436C34.8457 14.2765 31.8904 15.5291 31.8904 15.5291Z" fill="#41B6B0"/>
</g>
<path d="M52.9606 33V31.784C53.3659 31.5493 53.7926 31.3467 54.2406 31.176C54.7099 31.0053 55.1579 30.8987 55.5846 30.856V12.744C55.1579 12.6587 54.7099 12.5413 54.2406 12.392C53.7712 12.2213 53.3446 12.0293 52.9606 11.816V10.6H58.1126C58.9232 10.6 59.6912 10.568 60.4166 10.504C61.1419 10.44 61.9739 10.408 62.9126 10.408C63.9366 10.408 64.9286 10.4827 65.8886 10.632C66.8486 10.7813 67.7019 11.048 68.4486 11.432C69.1952 11.816 69.7926 12.36 70.2406 13.064C70.6886 13.7467 70.9126 14.632 70.9126 15.72C70.9126 16.4027 70.7846 17.0427 70.5286 17.64C70.2939 18.216 69.9526 18.728 69.5046 19.176C69.0779 19.624 68.5659 19.9973 67.9686 20.296C67.3926 20.5947 66.7632 20.808 66.0806 20.936V21.064C66.7632 21.1493 67.4459 21.3093 68.1286 21.544C68.8326 21.7787 69.4619 22.12 70.0166 22.568C70.5712 23.016 71.0192 23.5813 71.3606 24.264C71.7232 24.9253 71.9046 25.7147 71.9046 26.632C71.9046 27.784 71.6486 28.776 71.1366 29.608C70.6246 30.44 69.9312 31.1227 69.0566 31.656C68.2032 32.1893 67.2219 32.584 66.1126 32.84C65.0032 33.0747 63.8512 33.192 62.6566 33.192C62.2086 33.192 61.7179 33.1813 61.1846 33.16C60.6512 33.1387 60.1179 33.1173 59.5846 33.096C59.0512 33.0747 58.5286 33.0533 58.0166 33.032C57.5259 33.0107 57.1099 33 56.7686 33H52.9606ZM62.6246 31.112C63.9686 31.112 65.0246 30.7173 65.7926 29.928C66.5606 29.1173 66.9446 28.0507 66.9446 26.728C66.9446 25.9173 66.8166 25.256 66.5606 24.744C66.3046 24.2107 65.9526 23.7947 65.5046 23.496C65.0566 23.176 64.5232 22.9627 63.9046 22.856C63.2859 22.728 62.6139 22.664 61.8886 22.664H60.1926V30.888C60.4912 30.952 60.8006 31.0053 61.1206 31.048C61.4619 31.0907 61.9632 31.112 62.6246 31.112ZM61.2166 20.584C61.5792 20.584 61.9419 20.5733 62.3046 20.552C62.6672 20.5093 63.0086 20.4667 63.3286 20.424C64.1606 20.0827 64.8326 19.56 65.3446 18.856C65.8566 18.1307 66.1126 17.3093 66.1126 16.392C66.1126 15.048 65.7606 14.0667 65.0566 13.448C64.3526 12.808 63.4459 12.488 62.3366 12.488C61.8672 12.488 61.4619 12.4987 61.1206 12.52C60.7792 12.5413 60.4699 12.5733 60.1926 12.616V20.584H61.2166ZM82.9258 33H74.0938V31.752C74.4138 31.5813 74.7445 31.4427 75.0858 31.336C75.4271 31.208 75.8005 31.0907 76.2058 30.984V19.272L74.0938 19.016V17.768C74.4138 17.64 74.8085 17.512 75.2778 17.384C75.7685 17.256 76.2805 17.1493 76.8138 17.064C77.3471 16.9573 77.8698 16.872 78.3818 16.808C78.8938 16.7227 79.3418 16.6587 79.7258 16.616H80.8138V30.984C81.2405 31.0907 81.6245 31.208 81.9658 31.336C82.3071 31.4427 82.6271 31.5813 82.9258 31.752V33ZM75.6618 11.752C75.6618 11.0053 75.9178 10.4187 76.4298 9.992C76.9418 9.56533 77.6031 9.352 78.4138 9.352C79.2245 9.352 79.8858 9.56533 80.3978 9.992C80.9098 10.4187 81.1658 11.0053 81.1658 11.752C81.1658 12.4773 80.9098 13.0533 80.3978 13.48C79.8858 13.9067 79.2245 14.12 78.4138 14.12C77.6031 14.12 76.9418 13.9067 76.4298 13.48C75.9178 13.0533 75.6618 12.4773 75.6618 11.752ZM103.951 33H95.4708V31.752C95.7481 31.6027 96.0148 31.4747 96.2708 31.368C96.5481 31.24 96.8681 31.112 97.2308 30.984V23.464C97.2308 22.12 97.0388 21.0747 96.6548 20.328C96.2708 19.56 95.5881 19.176 94.6068 19.176C93.7961 19.176 93.0921 19.4427 92.4948 19.976C91.9188 20.488 91.4815 21.192 91.1828 22.088V30.984C91.5241 31.0693 91.8228 31.176 92.0788 31.304C92.3561 31.4107 92.6441 31.56 92.9428 31.752V33H84.4628V31.752C84.9961 31.4747 85.7001 31.2187 86.5748 30.984V19.272L84.4628 19.016V17.768C84.7401 17.64 85.1028 17.5227 85.5508 17.416C85.9988 17.288 86.4788 17.1707 86.9908 17.064C87.5241 16.9573 88.0575 16.872 88.5908 16.808C89.1455 16.7227 89.6468 16.6587 90.0948 16.616H91.1828V19.912H91.2148C91.6628 19.016 92.3348 18.248 93.2308 17.608C94.1268 16.9467 95.2148 16.616 96.4948 16.616C97.3268 16.616 98.0735 16.7227 98.7348 16.936C99.3961 17.128 99.9508 17.48 100.399 17.992C100.868 18.504 101.22 19.1973 101.455 20.072C101.711 20.9253 101.839 22.0133 101.839 23.336V30.984C102.692 31.1333 103.396 31.3893 103.951 31.752V33ZM105.537 19.016C105.217 18.9307 104.918 18.824 104.641 18.696C104.385 18.568 104.118 18.4187 103.841 18.248V17H112.257V18.216C111.809 18.5147 111.201 18.7813 110.433 19.016L113.665 27.048L114.209 29.096H114.273L114.785 27.016L117.281 19.016C116.641 18.888 116.054 18.632 115.521 18.248V17H121.697V18.248C121.249 18.5467 120.641 18.8027 119.873 19.016L114.657 33C114.145 34.3653 113.633 35.4747 113.121 36.328C112.609 37.2027 112.097 37.896 111.585 38.408C111.073 38.92 110.561 39.272 110.049 39.464C109.537 39.6773 109.025 39.816 108.513 39.88C108.299 39.688 108.107 39.4427 107.937 39.144C107.766 38.8667 107.617 38.5573 107.489 38.216C107.361 37.896 107.254 37.5653 107.169 37.224C107.083 36.8827 107.03 36.5627 107.009 36.264L107.425 35.496H111.329C111.521 35.1973 111.681 34.8773 111.809 34.536C111.958 34.1947 112.129 33.6827 112.321 33L105.537 19.016ZM121.75 25C121.75 23.6987 121.942 22.536 122.326 21.512C122.731 20.4667 123.297 19.5813 124.022 18.856C124.769 18.1307 125.665 17.576 126.71 17.192C127.755 16.808 128.939 16.616 130.262 16.616C131.755 16.616 133.035 16.8293 134.102 17.256C135.19 17.6613 136.075 18.2373 136.758 18.984C137.462 19.7093 137.974 20.5947 138.294 21.64C138.614 22.664 138.774 23.784 138.774 25C138.774 26.3013 138.582 27.4747 138.198 28.52C137.814 29.544 137.249 30.4187 136.502 31.144C135.777 31.8693 134.881 32.424 133.814 32.808C132.769 33.192 131.585 33.384 130.262 33.384C128.811 33.384 127.553 33.1813 126.486 32.776C125.419 32.3493 124.534 31.7733 123.83 31.048C123.126 30.3013 122.603 29.416 122.262 28.392C121.921 27.3467 121.75 26.216 121.75 25ZM126.71 25C126.71 25.96 126.763 26.8453 126.87 27.656C126.998 28.4453 127.211 29.1173 127.51 29.672C127.809 30.2267 128.214 30.664 128.726 30.984C129.238 31.2827 129.899 31.432 130.71 31.432C131.179 31.432 131.606 31.3253 131.99 31.112C132.374 30.8773 132.705 30.5147 132.982 30.024C133.259 29.512 133.462 28.8507 133.59 28.04C133.739 27.208 133.814 26.1947 133.814 25C133.814 24.0187 133.75 23.1333 133.622 22.344C133.515 21.5547 133.313 20.8827 133.014 20.328C132.737 19.7733 132.353 19.3467 131.862 19.048C131.371 18.728 130.753 18.568 130.006 18.568C129.451 18.568 128.971 18.6853 128.566 18.92C128.161 19.1333 127.819 19.496 127.542 20.008C127.265 20.4987 127.051 21.16 126.902 21.992C126.774 22.8027 126.71 23.8053 126.71 25ZM159.854 33H151.374V31.752C151.63 31.6027 151.897 31.464 152.174 31.336C152.451 31.208 152.771 31.0907 153.134 30.984V24.52C153.134 22.6853 152.953 21.3413 152.59 20.488C152.249 19.6133 151.566 19.176 150.542 19.176C149.689 19.176 148.963 19.4747 148.366 20.072C147.769 20.648 147.342 21.32 147.086 22.088V30.984C147.427 31.0693 147.726 31.1653 147.982 31.272C148.259 31.3787 148.547 31.5387 148.846 31.752V33H140.366V31.752C141.027 31.4107 141.731 31.1547 142.478 30.984V11.592L140.046 11.336V10.088C140.366 9.96 140.771 9.832 141.262 9.704C141.774 9.576 142.307 9.46933 142.862 9.384C143.417 9.27733 143.971 9.192 144.526 9.128C145.081 9.04266 145.571 8.97867 145.998 8.936H147.086V20.232H147.118C147.331 19.7413 147.619 19.2827 147.982 18.856C148.345 18.408 148.75 18.024 149.198 17.704C149.667 17.3627 150.169 17.096 150.702 16.904C151.235 16.712 151.801 16.616 152.398 16.616C153.251 16.616 154.009 16.7227 154.67 16.936C155.353 17.128 155.918 17.48 156.366 17.992C156.814 18.504 157.155 19.1973 157.39 20.072C157.625 20.9253 157.742 22.0133 157.742 23.336V30.984C158.105 31.0693 158.467 31.1653 158.83 31.272C159.193 31.3787 159.534 31.5387 159.854 31.752V33Z" fill="black"/>
<defs>
<clipPath id="clip0_309_191">
<rect width="44.3205" height="31.1984" fill="white" transform="translate(0 5.40088)"/>
</clipPath>
</defs>
</svg>
