<svg width="162" height="41" viewBox="0 0 162 41" fill="none" xmlns="http://www.w3.org/2000/svg">
<g clip-path="url(#clip0_575_812)">
<path d="M29.0998 28.9803C30.7434 26.2886 31.5947 23.1905 31.5612 20.02C31.5451 18.5353 31.3337 17.072 30.9415 15.6611C30.4355 15.9307 29.9417 16.2298 29.4652 16.5584C29.7395 17.6809 29.8895 18.8464 29.9015 20.0374C29.9564 25.1714 27.4682 29.8856 23.3096 32.7316C23.4006 33.1004 23.505 33.4679 23.6241 33.8327C23.8757 33.8998 24.1274 33.9575 24.379 34.0111C26.2729 32.682 27.8831 30.972 29.0998 28.9803Z" fill="white"/>
<path d="M22.2456 34.9258L22.2068 35.0733L21.8628 35.2074L22.1385 35.3442L22.3942 35.2115L22.342 35.1954L22.2456 34.9258Z" fill="white"/>
<path d="M21.836 6.77304C25.1902 8.55278 27.6864 11.4591 28.958 14.9006C29.4278 14.5988 29.9136 14.3212 30.4102 14.0677C30.01 13.0403 29.5094 12.0506 28.9098 11.1131C27.2568 8.52998 24.9332 6.44579 22.1934 5.08718L21.8146 4.89941L21.4412 5.09523C18.7294 6.51285 16.4527 8.64532 14.8546 11.2633C14.1238 12.461 13.5509 13.7391 13.1414 15.0669C13.6513 15.3043 14.1506 15.5685 14.6351 15.8568C15.7192 12.0412 18.2663 8.76334 21.836 6.7717V6.77304Z" fill="white"/>
<path d="M14.0526 20.2064C14.0432 19.3132 14.1115 18.4334 14.2507 17.5737C13.7555 17.2531 13.2455 16.9621 12.7235 16.7046C12.492 17.8553 12.3795 19.0356 12.3929 20.2238C12.4264 23.393 13.3432 26.4737 15.0431 29.1292C16.3173 31.1195 17.9904 32.8121 19.9445 34.1077C20.235 34.0219 20.5241 33.9293 20.8105 33.826C20.8895 33.4921 20.9551 33.1568 21.0113 32.8215C16.7349 30.0734 14.1075 25.3807 14.0526 20.2064Z" fill="white"/>
<path d="M43.3316 13.4455L43.1897 13.0472L42.7855 12.9278C39.8516 12.0641 36.7343 12.0158 33.7709 12.7897C32.9638 13.0003 32.1768 13.2725 31.4152 13.5984C31.6187 14.1134 31.798 14.6378 31.9533 15.1689C35.0358 13.8143 38.5292 13.5139 41.9088 14.4085C43.6461 19.7169 42.3706 25.4893 38.5319 29.5691C35.2299 33.0763 30.5707 34.7581 25.9021 34.2539C25.2797 34.7501 24.6239 35.2061 23.9373 35.6178C25.1111 35.8727 26.305 36.0001 27.5016 36.0001C28.9324 36.0001 30.3646 35.8177 31.7619 35.4529C34.8096 34.6576 37.5682 33.0173 39.7391 30.7118C41.9101 28.405 43.3824 25.551 43.9968 22.4555C44.5951 19.4459 44.3649 16.3304 43.3329 13.4455H43.3316Z" fill="white"/>
<path d="M1.09765 13.2509L1.24755 12.8553L1.65445 12.744C4.60442 11.9339 7.7217 11.9446 10.6703 12.7735C11.4734 12.9988 12.2551 13.2858 13.01 13.6265C12.7971 14.1375 12.6071 14.6578 12.4438 15.1863C9.38674 13.774 5.90005 13.4079 2.50437 14.2407C0.667998 19.5156 1.83648 25.3121 5.60023 29.4617C8.83664 33.0293 13.4637 34.7983 18.1403 34.3798C18.7533 34.8881 19.4011 35.3562 20.0784 35.78C18.9005 36.012 17.704 36.118 16.5074 36.0952C15.0765 36.0684 13.6484 35.8591 12.2577 35.4689C9.22479 34.6159 6.49834 32.926 4.37019 30.5789C2.24203 28.2332 0.82326 25.351 0.26646 22.2449C-0.275617 19.2259 0.0121522 16.1157 1.09765 13.2509Z" fill="white"/>
<path d="M29.4637 16.5594C29.9402 16.2308 30.4341 15.9317 30.94 15.6622C30.7901 15.123 30.6134 14.5906 30.41 14.0688C29.9121 14.3223 29.4276 14.6 28.9578 14.9017C29.1572 15.4422 29.3272 15.9948 29.465 16.5594H29.4637Z" fill="white"/>
<path d="M23.3094 32.7329C23.0886 32.8845 22.8637 33.0307 22.6335 33.1701C22.5492 33.6717 22.4435 34.1706 22.3136 34.6642L22.2454 34.9257L22.3417 35.1953L22.3939 35.2114L22.5131 35.1497C23.1609 34.8104 23.7846 34.4295 24.3802 34.0124C24.1286 33.9587 23.8756 33.9011 23.6253 33.834C23.5062 33.4692 23.4018 33.1017 23.3108 32.7329H23.3094Z" fill="white"/>
<path d="M14.6337 15.8583C14.1492 15.57 13.65 15.3057 13.14 15.0684C13.057 15.3353 12.9834 15.6062 12.9138 15.8771C13.4264 16.1212 13.9284 16.3948 14.4196 16.6979C14.4825 16.4149 14.5548 16.1359 14.6337 15.8597V15.8583Z" fill="white"/>
<path d="M22.2454 34.9255L22.1998 34.7981C22.0299 34.3247 21.8853 33.8445 21.7582 33.3604C21.6886 33.7265 21.6069 34.0913 21.5119 34.4534C21.3017 34.5352 21.0903 34.6117 20.8774 34.6841C21.1665 34.8504 21.461 35.0087 21.7608 35.1575L21.8626 35.2085L22.2065 35.0744L22.2454 34.9268V34.9255Z" fill="white"/>
<path d="M14.2508 17.5749C14.299 17.2798 14.3552 16.9874 14.4208 16.6978C13.9296 16.3946 13.4277 16.121 12.915 15.877C12.8454 16.1519 12.7798 16.4268 12.7236 16.7045C13.247 16.962 13.7556 17.253 14.2508 17.5735V17.5749Z" fill="white"/>
<path d="M21.7583 33.3591C21.749 33.3256 21.7396 33.292 21.7316 33.2572C21.4866 33.1177 21.247 32.9728 21.0128 32.8213C20.9579 33.1566 20.891 33.4919 20.812 33.8258C20.5243 33.9291 20.2352 34.0216 19.946 34.1075C20.2499 34.3087 20.5604 34.5004 20.8776 34.6828C21.0904 34.6104 21.3019 34.534 21.512 34.4522C21.6071 34.09 21.6887 33.7252 21.7583 33.3591Z" fill="white"/>
<path d="M21.7717 33.2803C21.7663 33.3071 21.7623 33.3326 21.7583 33.3594C21.8841 33.8436 22.03 34.3237 22.2 34.7971L22.2455 34.9245L22.3138 34.663C22.4436 34.1695 22.5493 33.6705 22.6337 33.1689C22.4637 33.2722 22.2937 33.3741 22.1183 33.4707C22.0019 33.409 21.8868 33.3433 21.7717 33.2789V33.2803Z" fill="white"/>
<path d="M21.7317 33.2588C21.7398 33.2925 21.7492 33.3261 21.7586 33.3611C21.764 33.3342 21.768 33.3086 21.772 33.2817C21.7586 33.2736 21.7451 33.2669 21.7317 33.2588Z" fill="white"/>
<path d="M12.4439 15.1862C12.4439 15.1862 12.2659 15.8782 12.1642 16.7258C12.0624 17.5735 10.4509 14.4324 10.4509 14.4324C9.67729 13.5566 12.4452 15.1862 12.4452 15.1862H12.4439Z" fill="white"/>
<path d="M31.8904 15.0291C31.8904 15.0291 31.9774 15.7386 31.9667 16.5916C31.956 17.4459 33.965 14.5436 33.965 14.5436C34.8457 13.7765 31.8904 15.0291 31.8904 15.0291Z" fill="white"/>
</g>
<path d="M52.9606 32V30.784C53.3659 30.5493 53.7926 30.3467 54.2406 30.176C54.7099 30.0053 55.1579 29.8987 55.5846 29.856V11.744C55.1579 11.6587 54.7099 11.5413 54.2406 11.392C53.7712 11.2213 53.3446 11.0293 52.9606 10.816V9.6H58.1126C58.9232 9.6 59.6912 9.568 60.4166 9.504C61.1419 9.44 61.9739 9.408 62.9126 9.408C63.9366 9.408 64.9286 9.48267 65.8886 9.632C66.8486 9.78133 67.7019 10.048 68.4486 10.432C69.1952 10.816 69.7926 11.36 70.2406 12.064C70.6886 12.7467 70.9126 13.632 70.9126 14.72C70.9126 15.4027 70.7846 16.0427 70.5286 16.64C70.2939 17.216 69.9526 17.728 69.5046 18.176C69.0779 18.624 68.5659 18.9973 67.9686 19.296C67.3926 19.5947 66.7632 19.808 66.0806 19.936V20.064C66.7632 20.1493 67.4459 20.3093 68.1286 20.544C68.8326 20.7787 69.4619 21.12 70.0166 21.568C70.5712 22.016 71.0192 22.5813 71.3606 23.264C71.7232 23.9253 71.9046 24.7147 71.9046 25.632C71.9046 26.784 71.6486 27.776 71.1366 28.608C70.6246 29.44 69.9312 30.1227 69.0566 30.656C68.2032 31.1893 67.2219 31.584 66.1126 31.84C65.0032 32.0747 63.8512 32.192 62.6566 32.192C62.2086 32.192 61.7179 32.1813 61.1846 32.16C60.6512 32.1387 60.1179 32.1173 59.5846 32.096C59.0512 32.0747 58.5286 32.0533 58.0166 32.032C57.5259 32.0107 57.1099 32 56.7686 32H52.9606ZM62.6246 30.112C63.9686 30.112 65.0246 29.7173 65.7926 28.928C66.5606 28.1173 66.9446 27.0507 66.9446 25.728C66.9446 24.9173 66.8166 24.256 66.5606 23.744C66.3046 23.2107 65.9526 22.7947 65.5046 22.496C65.0566 22.176 64.5232 21.9627 63.9046 21.856C63.2859 21.728 62.6139 21.664 61.8886 21.664H60.1926V29.888C60.4912 29.952 60.8006 30.0053 61.1206 30.048C61.4619 30.0907 61.9632 30.112 62.6246 30.112ZM61.2166 19.584C61.5792 19.584 61.9419 19.5733 62.3046 19.552C62.6672 19.5093 63.0086 19.4667 63.3286 19.424C64.1606 19.0827 64.8326 18.56 65.3446 17.856C65.8566 17.1307 66.1126 16.3093 66.1126 15.392C66.1126 14.048 65.7606 13.0667 65.0566 12.448C64.3526 11.808 63.4459 11.488 62.3366 11.488C61.8672 11.488 61.4619 11.4987 61.1206 11.52C60.7792 11.5413 60.4699 11.5733 60.1926 11.616V19.584H61.2166ZM82.9258 32H74.0938V30.752C74.4138 30.5813 74.7445 30.4427 75.0858 30.336C75.4271 30.208 75.8005 30.0907 76.2058 29.984V18.272L74.0938 18.016V16.768C74.4138 16.64 74.8085 16.512 75.2778 16.384C75.7685 16.256 76.2805 16.1493 76.8138 16.064C77.3471 15.9573 77.8698 15.872 78.3818 15.808C78.8938 15.7227 79.3418 15.6587 79.7258 15.616H80.8138V29.984C81.2405 30.0907 81.6245 30.208 81.9658 30.336C82.3071 30.4427 82.6271 30.5813 82.9258 30.752V32ZM75.6618 10.752C75.6618 10.0053 75.9178 9.41866 76.4298 8.992C76.9418 8.56533 77.6031 8.352 78.4138 8.352C79.2245 8.352 79.8858 8.56533 80.3978 8.992C80.9098 9.41866 81.1658 10.0053 81.1658 10.752C81.1658 11.4773 80.9098 12.0533 80.3978 12.48C79.8858 12.9067 79.2245 13.12 78.4138 13.12C77.6031 13.12 76.9418 12.9067 76.4298 12.48C75.9178 12.0533 75.6618 11.4773 75.6618 10.752ZM103.951 32H95.4708V30.752C95.7481 30.6027 96.0148 30.4747 96.2708 30.368C96.5481 30.24 96.8681 30.112 97.2308 29.984V22.464C97.2308 21.12 97.0388 20.0747 96.6548 19.328C96.2708 18.56 95.5881 18.176 94.6068 18.176C93.7961 18.176 93.0921 18.4427 92.4948 18.976C91.9188 19.488 91.4815 20.192 91.1828 21.088V29.984C91.5241 30.0693 91.8228 30.176 92.0788 30.304C92.3561 30.4107 92.6441 30.56 92.9428 30.752V32H84.4628V30.752C84.9961 30.4747 85.7001 30.2187 86.5748 29.984V18.272L84.4628 18.016V16.768C84.7401 16.64 85.1028 16.5227 85.5508 16.416C85.9988 16.288 86.4788 16.1707 86.9908 16.064C87.5241 15.9573 88.0575 15.872 88.5908 15.808C89.1455 15.7227 89.6468 15.6587 90.0948 15.616H91.1828V18.912H91.2148C91.6628 18.016 92.3348 17.248 93.2308 16.608C94.1268 15.9467 95.2148 15.616 96.4948 15.616C97.3268 15.616 98.0735 15.7227 98.7348 15.936C99.3961 16.128 99.9508 16.48 100.399 16.992C100.868 17.504 101.22 18.1973 101.455 19.072C101.711 19.9253 101.839 21.0133 101.839 22.336V29.984C102.692 30.1333 103.396 30.3893 103.951 30.752V32ZM105.537 18.016C105.217 17.9307 104.918 17.824 104.641 17.696C104.385 17.568 104.118 17.4187 103.841 17.248V16H112.257V17.216C111.809 17.5147 111.201 17.7813 110.433 18.016L113.665 26.048L114.209 28.096H114.273L114.785 26.016L117.281 18.016C116.641 17.888 116.054 17.632 115.521 17.248V16H121.697V17.248C121.249 17.5467 120.641 17.8027 119.873 18.016L114.657 32C114.145 33.3653 113.633 34.4747 113.121 35.328C112.609 36.2027 112.097 36.896 111.585 37.408C111.073 37.92 110.561 38.272 110.049 38.464C109.537 38.6773 109.025 38.816 108.513 38.88C108.299 38.688 108.107 38.4427 107.937 38.144C107.766 37.8667 107.617 37.5573 107.489 37.216C107.361 36.896 107.254 36.5653 107.169 36.224C107.083 35.8827 107.03 35.5627 107.009 35.264L107.425 34.496H111.329C111.521 34.1973 111.681 33.8773 111.809 33.536C111.958 33.1947 112.129 32.6827 112.321 32L105.537 18.016ZM122.219 24C122.219 22.6987 122.411 21.536 122.795 20.512C123.2 19.4667 123.765 18.5813 124.491 17.856C125.237 17.1307 126.133 16.576 127.179 16.192C128.224 15.808 129.408 15.616 130.731 15.616C132.224 15.616 133.504 15.8293 134.571 16.256C135.659 16.6613 136.544 17.2373 137.227 17.984C137.931 18.7093 138.443 19.5947 138.763 20.64C139.083 21.664 139.243 22.784 139.243 24C139.243 25.3013 139.051 26.4747 138.667 27.52C138.283 28.544 137.717 29.4187 136.971 30.144C136.245 30.8693 135.349 31.424 134.283 31.808C133.237 32.192 132.053 32.384 130.731 32.384C129.28 32.384 128.021 32.1813 126.955 31.776C125.888 31.3493 125.003 30.7733 124.299 30.048C123.595 29.3013 123.072 28.416 122.731 27.392C122.389 26.3467 122.219 25.216 122.219 24ZM127.179 24C127.179 24.96 127.232 25.8453 127.339 26.656C127.467 27.4453 127.68 28.1173 127.979 28.672C128.277 29.2267 128.683 29.664 129.195 29.984C129.707 30.2827 130.368 30.432 131.179 30.432C131.648 30.432 132.075 30.3253 132.459 30.112C132.843 29.8773 133.173 29.5147 133.451 29.024C133.728 28.512 133.931 27.8507 134.059 27.04C134.208 26.208 134.283 25.1947 134.283 24C134.283 23.0187 134.219 22.1333 134.091 21.344C133.984 20.5547 133.781 19.8827 133.483 19.328C133.205 18.7733 132.821 18.3467 132.331 18.048C131.84 17.728 131.221 17.568 130.475 17.568C129.92 17.568 129.44 17.6853 129.035 17.92C128.629 18.1333 128.288 18.496 128.011 19.008C127.733 19.4987 127.52 20.16 127.371 20.992C127.243 21.8027 127.179 22.8053 127.179 24ZM160.323 32H151.843V30.752C152.099 30.6027 152.365 30.464 152.643 30.336C152.92 30.208 153.24 30.0907 153.603 29.984V23.52C153.603 21.6853 153.421 20.3413 153.059 19.488C152.717 18.6133 152.035 18.176 151.011 18.176C150.157 18.176 149.432 18.4747 148.835 19.072C148.237 19.648 147.811 20.32 147.555 21.088V29.984C147.896 30.0693 148.195 30.1653 148.451 30.272C148.728 30.3787 149.016 30.5387 149.315 30.752V32H140.835V30.752C141.496 30.4107 142.2 30.1547 142.947 29.984V10.592L140.515 10.336V9.088C140.835 8.96 141.24 8.832 141.731 8.704C142.243 8.576 142.776 8.46933 143.331 8.384C143.885 8.27733 144.44 8.192 144.995 8.128C145.549 8.04266 146.04 7.97867 146.467 7.936H147.555V19.232H147.587C147.8 18.7413 148.088 18.2827 148.451 17.856C148.813 17.408 149.219 17.024 149.667 16.704C150.136 16.3627 150.637 16.096 151.171 15.904C151.704 15.712 152.269 15.616 152.867 15.616C153.72 15.616 154.477 15.7227 155.139 15.936C155.821 16.128 156.387 16.48 156.835 16.992C157.283 17.504 157.624 18.1973 157.859 19.072C158.093 19.9253 158.211 21.0133 158.211 22.336V29.984C158.573 30.0693 158.936 30.1653 159.299 30.272C159.661 30.3787 160.003 30.5387 160.323 30.752V32Z" fill="white"/>
<defs>
<clipPath id="clip0_575_812">
<rect width="44.3205" height="31.1984" fill="white" transform="translate(0 4.90088)"/>
</clipPath>
</defs>
</svg>
