<svg width="86" height="85" viewBox="0 0 86 85" fill="none" xmlns="http://www.w3.org/2000/svg">
<path d="M23.5208 61.9791H12.8958V72.6041M73.1041 72.6041H62.4791V61.9791M62.4791 23.0208H73.1041V12.3958M12.8958 12.3958H23.5208V23.0208" fill="#FF6685"/>
<path d="M23.5208 61.9791H12.8958V72.6041M73.1041 72.6041H62.4791V61.9791M62.4791 23.0208H73.1041V12.3958M12.8958 12.3958H23.5208V23.0208" stroke="#FF6685" stroke-width="6" stroke-linecap="round" stroke-linejoin="round"/>
<path d="M23.5208 12.9164C13.9193 19.2507 7.58325 30.136 7.58325 42.4999C7.58325 44.3062 7.71784 46.0788 7.97815 47.8124M48.3124 77.5199C46.5539 77.7843 44.7782 77.9169 42.9999 77.9166C30.636 77.9166 19.7506 71.5805 13.4164 61.9791M78.0199 37.1874C78.282 38.9211 78.4166 40.6937 78.4166 42.4999C78.4166 54.8639 72.0805 65.7492 62.4791 72.0835M37.6874 7.47815C39.4459 7.2144 41.2217 7.0824 42.9999 7.08326C55.3639 7.08326 66.2492 13.4193 72.5835 23.0208" stroke="#FF6685" stroke-width="6" stroke-linecap="round" stroke-linejoin="round"/>
</svg>
