<svg width="74" height="85" viewBox="0 0 74 85" fill="none" xmlns="http://www.w3.org/2000/svg">
<path d="M15.4167 17.7084H21.5833V28.3334H52.4167V17.7084H58.5833V35.4167H64.75V17.7084C64.75 13.8126 61.975 10.6251 58.5833 10.6251H45.695C44.4 6.51675 41.0083 3.54175 37 3.54175C32.9917 3.54175 29.6 6.51675 28.305 10.6251H15.4167C12.025 10.6251 9.25 13.8126 9.25 17.7084V67.2917C9.25 71.1876 12.025 74.3751 15.4167 74.3751H30.8333V67.2917H15.4167V17.7084ZM37 10.6251C38.6958 10.6251 40.0833 12.2188 40.0833 14.1667C40.0833 16.1147 38.6958 17.7084 37 17.7084C35.3042 17.7084 33.9167 16.1147 33.9167 14.1667C33.9167 12.2188 35.3042 10.6251 37 10.6251Z" fill="#FF6685"/>
<path d="M62.5917 66.9375C63.825 64.4583 64.75 61.625 64.75 58.4375C64.75 49.5833 58.5833 42.5 50.875 42.5C43.1667 42.5 37 49.5833 37 58.4375C37 67.2917 43.1667 74.375 50.875 74.375C53.65 74.375 56.1167 73.3125 58.275 71.8958L66.6 81.4583L70.9167 76.5L62.5917 66.9375ZM50.875 67.2917C46.5583 67.2917 43.1667 63.3958 43.1667 58.4375C43.1667 53.4792 46.5583 49.5833 50.875 49.5833C55.1917 49.5833 58.5833 53.4792 58.5833 58.4375C58.5833 63.3958 55.1917 67.2917 50.875 67.2917Z" fill="#FF6685"/>
</svg>
