<svg width="74" height="85" viewBox="0 0 74 85" fill="none" xmlns="http://www.w3.org/2000/svg">
<path d="M24.4464 47.8125H17.8393C16.7491 47.8125 15.8571 46.916 15.8571 45.8203V39.1797C15.8571 38.084 16.7491 37.1875 17.8393 37.1875H24.4464C25.5366 37.1875 26.4286 38.084 26.4286 39.1797V45.8203C26.4286 46.916 25.5366 47.8125 24.4464 47.8125ZM42.2857 45.8203V39.1797C42.2857 38.084 41.3937 37.1875 40.3036 37.1875H33.6964C32.6062 37.1875 31.7143 38.084 31.7143 39.1797V45.8203C31.7143 46.916 32.6062 47.8125 33.6964 47.8125H40.3036C41.3937 47.8125 42.2857 46.916 42.2857 45.8203ZM58.1429 45.8203V39.1797C58.1429 38.084 57.2509 37.1875 56.1607 37.1875H49.5536C48.4634 37.1875 47.5714 38.084 47.5714 39.1797V45.8203C47.5714 46.916 48.4634 47.8125 49.5536 47.8125H56.1607C57.2509 47.8125 58.1429 46.916 58.1429 45.8203ZM42.2857 61.7578V55.1172C42.2857 54.0215 41.3937 53.125 40.3036 53.125H33.6964C32.6062 53.125 31.7143 54.0215 31.7143 55.1172V61.7578C31.7143 62.8535 32.6062 63.75 33.6964 63.75H40.3036C41.3937 63.75 42.2857 62.8535 42.2857 61.7578ZM26.4286 61.7578V55.1172C26.4286 54.0215 25.5366 53.125 24.4464 53.125H17.8393C16.7491 53.125 15.8571 54.0215 15.8571 55.1172V61.7578C15.8571 62.8535 16.7491 63.75 17.8393 63.75H24.4464C25.5366 63.75 26.4286 62.8535 26.4286 61.7578ZM58.1429 61.7578V55.1172C58.1429 54.0215 57.2509 53.125 56.1607 53.125H49.5536C48.4634 53.125 47.5714 54.0215 47.5714 55.1172V61.7578C47.5714 62.8535 48.4634 63.75 49.5536 63.75H56.1607C57.2509 63.75 58.1429 62.8535 58.1429 61.7578ZM74 18.5938V77.0312C74 81.4307 70.4487 85 66.0714 85H7.92857C3.55134 85 0 81.4307 0 77.0312V18.5938C0 14.1943 3.55134 10.625 7.92857 10.625H15.8571V1.99219C15.8571 0.896484 16.7491 0 17.8393 0H24.4464C25.5366 0 26.4286 0.896484 26.4286 1.99219V10.625H47.5714V1.99219C47.5714 0.896484 48.4634 0 49.5536 0H56.1607C57.2509 0 58.1429 0.896484 58.1429 1.99219V10.625H66.0714C70.4487 10.625 74 14.1943 74 18.5938ZM66.0714 76.0352V26.5625H7.92857V76.0352C7.92857 76.583 8.37455 77.0312 8.91964 77.0312H65.0804C65.6254 77.0312 66.0714 76.583 66.0714 76.0352Z" fill="#FF6685"/>
</svg>
