<svg width="162" height="162" viewBox="0 0 162 162" fill="none" xmlns="http://www.w3.org/2000/svg">
<g filter="url(#filter0_d_313_254)">
<circle cx="81.2913" cy="73.0613" r="40.2913" fill="#FF6685"/>
</g>
<circle cx="83.7087" cy="71.4495" r="40.2913" fill="white"/>
<g clip-path="url(#clip0_313_254)">
<path d="M106.843 86.2782L109.373 86.6761C110.23 85.6325 110.82 84.3942 111.093 83.0688C109.243 84.593 106.429 83.7831 104.185 84.6152C103.487 84.8801 102.858 85.2996 102.343 85.8427C101.828 86.3858 101.442 87.0385 101.212 87.7524L99.9749 89.0913C101.094 89.5373 102.297 89.7337 103.499 89.6671C104.701 89.6005 105.874 89.2724 106.938 88.7055C107.532 88.3815 108.083 87.9836 108.578 87.521C107.693 86.96 106.843 86.2782 106.843 86.2782Z" fill="#F2F2F2"/>
<path d="M105.944 82.2054L108.386 81.4259C108.69 80.1074 108.669 78.7341 108.326 77.4253C107.346 79.6199 104.468 80.1578 102.829 81.9095C102.322 82.4598 101.944 83.1179 101.724 83.8349C101.504 84.552 101.447 85.3098 101.558 86.052L101.044 87.8054C102.244 87.7021 103.407 87.3384 104.453 86.7393C105.5 86.1402 106.405 85.3199 107.106 84.3349C107.494 83.7785 107.81 83.175 108.048 82.5389C107.007 82.4341 105.944 82.2054 105.944 82.2054Z" fill="#F2F2F2"/>
<path d="M111.107 89.9022C111.107 89.9154 111.104 89.9284 111.099 89.9405C111.094 89.9527 111.087 89.9637 111.078 89.973C111.068 89.9823 111.058 89.9896 111.045 89.9947C111.033 89.9997 111.02 90.0022 111.007 90.0022H54.7983C54.772 90.0022 54.7467 89.9917 54.7281 89.9729C54.7094 89.9542 54.699 89.9287 54.699 89.9022C54.699 89.8757 54.7094 89.8503 54.7281 89.8315C54.7467 89.8128 54.772 89.8022 54.7983 89.8022H111.007C111.02 89.8022 111.033 89.8048 111.045 89.8098C111.058 89.8148 111.068 89.8221 111.078 89.8314C111.087 89.8407 111.094 89.8518 111.099 89.8639C111.104 89.8761 111.107 89.8891 111.107 89.9022V89.9022Z" fill="#CCCCCC"/>
<path d="M77.9908 85.6403C87.9039 85.6403 95.9399 77.5536 95.9399 67.5782C95.9399 57.6028 87.9039 49.5161 77.9908 49.5161C68.0778 49.5161 60.0417 57.6028 60.0417 67.5782C60.0417 77.5536 68.0778 85.6403 77.9908 85.6403Z" fill="#E6E6E6"/>
<path d="M93.4355 67.5784C93.4373 70.0035 92.8744 72.3953 91.7918 74.5619C90.7093 76.7286 89.1372 78.6098 87.2018 80.0547C87.0724 80.1521 86.9405 80.2471 86.8077 80.3395C84.2196 82.1499 81.143 83.1202 77.991 83.1202C74.8389 83.1202 71.7624 82.1499 69.1742 80.3395C69.0415 80.2471 68.9095 80.1521 68.7801 80.0547C66.846 78.6085 65.275 76.727 64.1925 74.5607C63.1101 72.3943 62.5464 70.0032 62.5464 67.5784C62.5464 65.1536 63.1101 62.7625 64.1925 60.5961C65.275 58.4298 66.846 56.5483 68.7801 55.1021C68.9095 55.0047 69.0415 54.9098 69.1742 54.8173C71.7624 53.0069 74.8389 52.0366 77.991 52.0366C81.143 52.0366 84.2196 53.0069 86.8077 54.8173C86.9405 54.9098 87.0724 55.0047 87.2018 55.1021C89.1372 56.547 90.7093 58.4283 91.7918 60.5949C92.8744 62.7615 93.4373 65.1533 93.4355 67.5784V67.5784Z" fill="white"/>
<path d="M77.9909 81.7756C85.783 81.7756 92.0997 75.4191 92.0997 67.578C92.0997 59.7369 85.783 53.3804 77.9909 53.3804C70.1988 53.3804 63.8821 59.7369 63.8821 67.578C63.8821 75.4191 70.1988 81.7756 77.9909 81.7756Z" fill="#FF6685"/>
<path opacity="0.2" d="M78.0277 53.4204C77.8138 53.4204 77.6012 53.426 77.3897 53.4355C80.9556 53.7508 84.2691 55.4184 86.6588 58.1003C89.0486 60.7823 90.3359 64.2781 90.2599 67.8795C90.184 71.4809 88.7504 74.9185 86.2497 77.496C83.7491 80.0735 80.3682 81.5981 76.7922 81.7609C77.1995 81.7965 77.6113 81.8157 78.0277 81.8157C81.7696 81.8157 85.3582 80.3199 88.0041 77.6573C90.6501 74.9947 92.1365 71.3835 92.1365 67.6181C92.1365 63.8526 90.6501 60.2414 88.0041 57.5788C85.3582 54.9162 81.7696 53.4204 78.0277 53.4204V53.4204Z" fill="black"/>
<path d="M78.0326 52.3726C77.9109 52.3728 77.7943 52.4215 77.7082 52.5081C77.6221 52.5947 77.5737 52.7121 77.5735 52.8346V54.8508C77.5735 54.9734 77.6219 55.0909 77.708 55.1776C77.7941 55.2642 77.9109 55.3129 78.0326 55.3129C78.1544 55.3129 78.2712 55.2642 78.3573 55.1776C78.4434 55.0909 78.4918 54.9734 78.4918 54.8508V52.8346C78.4916 52.7121 78.4432 52.5947 78.3571 52.5081C78.271 52.4215 78.1544 52.3728 78.0326 52.3726V52.3726Z" fill="white"/>
<path d="M87.2018 55.1022C87.0724 55.0047 86.9405 54.9098 86.8077 54.8174C86.7281 54.8122 86.6485 54.8279 86.5767 54.8631C86.505 54.8984 86.4436 54.9518 86.3987 55.0182L85.2708 56.6841C85.2023 56.7853 85.1765 56.9099 85.1992 57.0302C85.2219 57.1506 85.2912 57.257 85.3918 57.3259C85.4925 57.3949 85.6162 57.4208 85.7358 57.3979C85.8554 57.3751 85.9611 57.3054 86.0297 57.2041L87.1575 55.5382C87.2004 55.475 87.227 55.402 87.2347 55.3258C87.2424 55.2497 87.2311 55.1728 87.2018 55.1022V55.1022Z" fill="white"/>
<path d="M92.326 62.6979C92.3034 62.6418 92.2699 62.5906 92.2276 62.5475C92.1853 62.5043 92.1349 62.47 92.0794 62.4464C92.0239 62.4229 91.9643 62.4105 91.9041 62.4102C91.8438 62.4098 91.7841 62.4214 91.7283 62.4442L89.8716 63.2028C89.7589 63.249 89.669 63.3384 89.6218 63.4512C89.5745 63.564 89.5737 63.6911 89.6195 63.8046C89.6653 63.918 89.754 64.0086 89.866 64.0562C89.9781 64.1039 90.1044 64.1049 90.2172 64.0589L92.0739 63.3003C92.1866 63.2538 92.2763 63.1644 92.3236 63.0515C92.3709 62.9386 92.3717 62.8115 92.326 62.6979Z" fill="white"/>
<path d="M70.7111 56.6841L69.5833 55.0182C69.5383 54.9518 69.477 54.8984 69.4052 54.8631C69.3335 54.8279 69.2539 54.8122 69.1742 54.8174C69.0415 54.9098 68.9096 55.0047 68.7802 55.1022C68.7508 55.1728 68.7395 55.2497 68.7472 55.3258C68.755 55.402 68.7815 55.475 68.8244 55.5382L69.9523 57.2041C70.0208 57.3054 70.1265 57.3751 70.2461 57.3979C70.3657 57.4208 70.4895 57.3949 70.5901 57.3259C70.6907 57.257 70.76 57.1506 70.7827 57.0302C70.8054 56.9099 70.7797 56.7853 70.7111 56.6841V56.6841Z" fill="white"/>
<path d="M66.1104 63.2032L64.2537 62.4446C64.1409 62.3985 64.0145 62.3994 63.9023 62.447C63.7902 62.4947 63.7014 62.5852 63.6556 62.6987C63.6098 62.8123 63.6106 62.9394 63.658 63.0523C63.7053 63.1652 63.7953 63.2545 63.9081 63.3006L65.7647 64.0593C65.8775 64.1052 66.0038 64.1043 66.1159 64.0566C66.228 64.0089 66.3167 63.9184 66.3625 63.805C66.4083 63.6915 66.4075 63.5644 66.3602 63.4516C66.3129 63.3387 66.2231 63.2494 66.1104 63.2032V63.2032Z" fill="white"/>
<path d="M78.0326 79.8438C77.9109 79.844 77.7943 79.8927 77.7082 79.9793C77.6221 80.0659 77.5737 80.1833 77.5735 80.3058V82.322C77.5735 82.4446 77.6219 82.5621 77.708 82.6488C77.7941 82.7354 77.9109 82.7841 78.0326 82.7841C78.1544 82.7841 78.2712 82.7354 78.3573 82.6488C78.4434 82.5621 78.4918 82.4446 78.4918 82.322V80.3058C78.4916 80.1833 78.4432 80.0659 78.3571 79.9793C78.271 79.8927 78.1544 79.844 78.0326 79.8438V79.8438Z" fill="white"/>
<path d="M87.1575 79.6188L86.0297 77.9529C85.9957 77.9028 85.9523 77.8598 85.9019 77.8266C85.8515 77.7933 85.795 77.7704 85.7358 77.7591C85.6766 77.7478 85.6157 77.7483 85.5567 77.7607C85.4977 77.773 85.4417 77.797 85.3918 77.8311C85.342 77.8652 85.2994 77.9089 85.2663 77.9597C85.2332 78.0104 85.2105 78.0672 85.1992 78.1268C85.188 78.1864 85.1885 78.2476 85.2008 78.307C85.2131 78.3664 85.2369 78.4228 85.2708 78.4729L86.3987 80.1388C86.4436 80.2052 86.505 80.2587 86.5767 80.2939C86.6485 80.3291 86.7281 80.3449 86.8077 80.3396C86.9405 80.2472 87.0724 80.1523 87.2018 80.0548C87.2311 79.9842 87.2424 79.9073 87.2347 79.8312C87.227 79.755 87.2004 79.682 87.1575 79.6188Z" fill="white"/>
<path d="M92.074 71.856L90.2173 71.0974C90.1045 71.0513 89.9781 71.0522 89.866 71.0999C89.7538 71.1475 89.665 71.2381 89.6192 71.3516C89.5734 71.4651 89.5742 71.5923 89.6216 71.7051C89.6689 71.818 89.7589 71.9073 89.8717 71.9535L91.7284 72.7121C91.8411 72.7581 91.9675 72.7571 92.0796 72.7094C92.1916 72.6618 92.2803 72.5712 92.3261 72.4578C92.3719 72.3443 92.3711 72.2172 92.3238 72.1044C92.2766 71.9916 92.1867 71.9022 92.074 71.856V71.856Z" fill="white"/>
<path d="M70.5901 77.8311C70.4894 77.7621 70.3657 77.7362 70.2461 77.7591C70.1265 77.7819 70.0208 77.8516 69.9523 77.9529L68.8244 79.6188C68.7815 79.682 68.755 79.755 68.7472 79.8311C68.7395 79.9073 68.7508 79.9842 68.7802 80.0548C68.9096 80.1522 69.0415 80.2472 69.1742 80.3396C69.2539 80.3448 69.3335 80.329 69.4052 80.2938C69.477 80.2586 69.5383 80.2052 69.5833 80.1388L70.7111 78.4729C70.7451 78.4228 70.7689 78.3664 70.7812 78.307C70.7934 78.2476 70.794 78.1863 70.7827 78.1267C70.7715 78.0671 70.7487 78.0103 70.7156 77.9596C70.6826 77.9089 70.6399 77.8652 70.5901 77.8311V77.8311Z" fill="white"/>
<path d="M66.3624 71.3512C66.3397 71.2951 66.3063 71.244 66.264 71.2008C66.2217 71.1576 66.1713 71.1233 66.1158 71.0998C66.0603 71.0762 66.0007 71.0639 65.9405 71.0635C65.8802 71.0631 65.8205 71.0747 65.7647 71.0975L63.908 71.8561C63.7953 71.9023 63.7054 71.9917 63.6581 72.1045C63.6109 72.2173 63.61 72.3445 63.6558 72.4579C63.7016 72.5714 63.7903 72.6619 63.9024 72.7096C64.0145 72.7572 64.1408 72.7582 64.2536 72.7122L66.1103 71.9536C66.2229 71.9072 66.3127 71.8177 66.36 71.7048C66.4072 71.5919 66.4081 71.4648 66.3624 71.3512V71.3512Z" fill="white"/>
<path d="M78.6284 67.3494C78.6708 67.6019 78.6119 67.8611 78.4647 68.07C78.3174 68.2789 78.0938 68.4205 77.8429 68.4638L69.695 69.8585C69.5707 69.8797 69.4435 69.8762 69.3206 69.848C69.1977 69.8197 69.0815 69.7674 68.9786 69.6941C68.8758 69.6207 68.7883 69.5276 68.7212 69.4202C68.6541 69.3128 68.6087 69.1931 68.5876 69.068C68.5664 68.943 68.57 68.8149 68.598 68.6912C68.626 68.5675 68.678 68.4506 68.7509 68.3471C68.8239 68.2436 68.9164 68.1556 69.0231 68.0881C69.1298 68.0206 69.2488 67.9749 69.3731 67.9536L77.5209 66.5589C77.7719 66.5163 78.0295 66.5755 78.2371 66.7237C78.4447 66.8719 78.5854 67.0969 78.6284 67.3494V67.3494Z" fill="#3F3D56"/>
<path d="M87.2038 76.4331C87.0868 76.5515 86.9278 76.6184 86.7618 76.6191C86.5958 76.6197 86.4363 76.5541 86.3184 76.4366L77.5473 67.6795C77.4296 67.5617 77.3631 67.4018 77.3626 67.2348C77.362 67.0678 77.4273 66.9074 77.5442 66.7888C77.6611 66.6703 77.82 66.6033 77.9859 66.6025C78.1519 66.6018 78.3113 66.6674 78.4293 66.7849L87.2004 75.542C87.3181 75.6598 87.3846 75.8198 87.3852 75.9868C87.3859 76.1539 87.3206 76.3143 87.2038 76.4331V76.4331Z" fill="#3F3D56"/>
<path d="M77.9911 68.6706C78.5904 68.6706 79.0764 68.1816 79.0764 67.5785C79.0764 66.9753 78.5904 66.4863 77.9911 66.4863C77.3917 66.4863 76.9058 66.9753 76.9058 67.5785C76.9058 68.1816 77.3917 68.6706 77.9911 68.6706Z" fill="#CCCCCC"/>
<path d="M70.5155 48.6409C68.8496 51.2765 66.3077 53.0256 63.173 54.1746C63.1111 54.2213 63.0406 54.2553 62.9657 54.2745C62.8907 54.2938 62.8127 54.298 62.736 54.287C62.6594 54.2759 62.5858 54.2498 62.5192 54.2101C62.4526 54.1703 62.3945 54.1178 62.3481 54.0555V54.0555C60.6454 51.7677 61.0298 48.498 63.2771 46.7498C63.8204 46.3279 64.4416 46.0188 65.1046 45.8405C65.7676 45.6621 66.4591 45.6181 67.1392 45.7109C67.8192 45.8037 68.4742 46.0315 69.066 46.3811C69.6579 46.7307 70.1748 47.1952 70.5868 47.7474L70.6339 47.8107C70.6803 47.8731 70.714 47.944 70.7332 48.0194C70.7523 48.0949 70.7565 48.1734 70.7455 48.2505C70.7345 48.3276 70.7086 48.4017 70.6691 48.4687C70.6296 48.5357 70.5774 48.5942 70.5155 48.6409V48.6409Z" fill="#E6E6E6"/>
<path d="M85.3949 47.7474C85.807 47.1952 86.3239 46.7307 86.9157 46.3811C87.5075 46.0315 88.1625 45.8037 88.8425 45.7109C89.5226 45.6181 90.2142 45.6621 90.8772 45.8405C91.5402 46.0188 92.1613 46.3279 92.7046 46.7498C94.9519 48.498 95.3364 51.7677 93.6336 54.0555C93.5872 54.1178 93.5291 54.1703 93.4625 54.21C93.396 54.2498 93.3223 54.2759 93.2457 54.287C93.1691 54.298 93.0911 54.2938 93.0161 54.2745C92.9411 54.2553 92.8706 54.2213 92.8087 54.1746C89.8986 53.0535 87.5123 51.1134 85.4663 48.6409C85.3412 48.5466 85.2584 48.4062 85.2362 48.2505C85.214 48.0948 85.2542 47.9366 85.3478 47.8107L85.3949 47.7474Z" fill="#E6E6E6"/>
<path d="M84.6651 83.2265C84.559 83.2865 84.4808 83.3864 84.4477 83.5043C84.4147 83.6221 84.4294 83.7484 84.4886 83.8554L87.1385 88.6206C87.198 88.7275 87.2973 88.8063 87.4145 88.8396C87.5316 88.8729 87.6572 88.8579 87.7634 88.7981C87.8697 88.7383 87.9479 88.6384 87.9811 88.5205C88.0142 88.4026 87.9994 88.2763 87.9399 88.1693L85.29 83.4041C85.2304 83.2973 85.1311 83.2187 85.014 83.1854C84.8968 83.1521 84.7714 83.1669 84.6651 83.2265V83.2265Z" fill="#E6E6E6"/>
<path d="M70.692 83.4045L68.0421 88.1697C67.9826 88.2767 67.9678 88.403 68.0009 88.5209C68.034 88.6388 68.1123 88.7386 68.2186 88.7985C68.3248 88.8583 68.4504 88.8732 68.5675 88.8399C68.6847 88.8067 68.784 88.7279 68.8434 88.621L71.4934 83.8558C71.5229 83.8028 71.5417 83.7445 71.5487 83.6843C71.5558 83.624 71.551 83.5629 71.5347 83.5045C71.5183 83.4461 71.4906 83.3915 71.4533 83.3439C71.4159 83.2962 71.3696 83.2564 71.317 83.2268C71.2644 83.1972 71.2064 83.1783 71.1465 83.1712C71.0867 83.164 71.026 83.1689 70.9679 83.1854C70.9099 83.2019 70.8557 83.2297 70.8083 83.2673C70.761 83.3049 70.7214 83.3515 70.692 83.4045H70.692Z" fill="#E6E6E6"/>
<path d="M87.6751 89.8407C88.4589 89.8407 89.0943 89.2013 89.0943 88.4125C89.0943 87.6238 88.4589 86.9844 87.6751 86.9844C86.8913 86.9844 86.2559 87.6238 86.2559 88.4125C86.2559 89.2013 86.8913 89.8407 87.6751 89.8407Z" fill="#E6E6E6"/>
<path d="M88.6768 53.2963C89.4606 53.2963 90.096 52.6569 90.096 51.8681C90.096 51.0794 89.4606 50.4399 88.6768 50.4399C87.893 50.4399 87.2576 51.0794 87.2576 51.8681C87.2576 52.6569 87.893 53.2963 88.6768 53.2963Z" fill="#E6E6E6"/>
<path d="M77.9075 49.9364C78.6913 49.9364 79.3267 49.297 79.3267 48.5082C79.3267 47.7195 78.6913 47.0801 77.9075 47.0801C77.1237 47.0801 76.4883 47.7195 76.4883 48.5082C76.4883 49.297 77.1237 49.9364 77.9075 49.9364Z" fill="#E6E6E6"/>
<path d="M67.639 53.1283C68.4228 53.1283 69.0582 52.4889 69.0582 51.7001C69.0582 50.9114 68.4228 50.272 67.639 50.272C66.8551 50.272 66.2197 50.9114 66.2197 51.7001C66.2197 52.4889 66.8551 53.1283 67.639 53.1283Z" fill="#E6E6E6"/>
<path d="M68.5572 89.8407C69.341 89.8407 69.9764 89.2013 69.9764 88.4125C69.9764 87.6238 69.341 86.9844 68.5572 86.9844C67.7734 86.9844 67.1379 87.6238 67.1379 88.4125C67.1379 89.2013 67.7734 89.8407 68.5572 89.8407Z" fill="#E6E6E6"/>
<path d="M86.5617 75.6299C86.6176 75.7181 86.6921 75.7928 86.7798 75.8489C86.8676 75.9049 86.9665 75.9409 87.0696 75.9544C87.1726 75.9678 87.2774 75.9583 87.3764 75.9266C87.4755 75.8949 87.5664 75.8417 87.6428 75.7708L89.8698 76.9716L89.7504 75.6559L87.6539 74.7173C87.527 74.596 87.3603 74.5258 87.1854 74.5199C87.0105 74.5141 86.8396 74.5729 86.705 74.6854C86.5703 74.7979 86.4814 74.9562 86.455 75.1303C86.4286 75.3044 86.4665 75.4821 86.5617 75.6299H86.5617Z" fill="#FFB7B7"/>
<path d="M88.1846 76.0892L89.0573 74.877L93.2615 76.8769L98.4932 75.8891C98.7518 75.8403 99.0179 75.8494 99.2727 75.9157C99.5274 75.982 99.7645 76.1039 99.9671 76.2728C100.17 76.4417 100.333 76.6534 100.445 76.8929C100.557 77.1324 100.616 77.3938 100.616 77.6586V77.6586C100.617 78.1368 100.428 78.5956 100.093 78.9344C99.7576 79.2732 99.3023 79.4643 98.8271 79.4657L92.8316 79.4769L88.1846 76.0892Z" fill="#3F3D56"/>
<path d="M86.8405 97.0265L85.9575 96.6016L87.1705 92.8877L88.4736 93.5149L86.8405 97.0265Z" fill="#FFB7B7"/>
<path d="M92.7599 96.4277C92.6957 96.4682 92.6315 96.508 92.5667 96.5478C92.4376 96.6275 92.3072 96.7058 92.1769 96.7828C92.1114 96.8213 92.0452 96.8598 91.9797 96.8977V96.8996L91.9758 96.9003L91.9745 96.9009L91.8746 96.9257L91.7313 96.5446L91.6651 96.369L91.5718 96.1203L91.4005 95.6655L90.499 93.2702L91.9006 92.9224L91.9531 93.1384H91.9538L91.9797 93.2454L92.4694 95.2438L92.5692 95.6524L92.5725 95.6648L92.6328 95.9089L92.6847 96.1204L92.7424 96.3566L92.7599 96.4277Z" fill="#FFB7B7"/>
<path d="M101.121 88.0164C101.032 88.16 100.941 88.3029 100.849 88.4445C100.679 88.7082 100.505 88.968 100.326 89.2238C100.326 89.2245 100.325 89.2245 100.325 89.2251C100.22 89.3225 100.105 89.4072 99.981 89.4777C99.9758 89.4816 99.97 89.4842 99.9648 89.4875C99.8735 89.5382 99.7763 89.5775 99.6755 89.6043C99.6392 89.6134 99.6022 89.6226 99.5659 89.6317C99.4349 89.663 99.3052 89.6898 99.1761 89.7133C98.9465 89.7544 98.7195 89.7838 98.4938 89.8021C98.4757 89.804 98.4575 89.8053 98.4393 89.8066C97.5113 89.8751 96.6078 89.7649 95.6648 89.5841C95.1991 89.4953 94.7237 89.3889 94.2314 89.2786C94.0706 89.2421 93.9091 89.2062 93.7457 89.1703C93.7334 89.1677 93.7204 89.1644 93.7074 89.1618C93.4739 89.1102 93.2366 89.0593 92.9933 89.0091C92.6872 88.9458 92.3714 88.8844 92.0432 88.8263L92.0665 89.2917C92.086 89.6497 92.1599 90.0025 92.2858 90.3379C92.4258 90.7504 92.5367 91.0767 92.3026 91.7561L92.1898 92.085C92.2483 92.2484 92.2683 92.4231 92.2484 92.5956C92.2285 92.768 92.1691 92.9335 92.075 93.079L92.0523 93.1136L92.9933 95.5095L93.0543 95.6648H92.5724L91.9796 95.6655H90.975L89.5255 92.739L89.4561 92.5993V92.5921L89.6059 86.9683C89.6078 86.9187 89.6117 86.8684 89.6182 86.8188C89.6446 86.5933 89.7154 86.3754 89.8264 86.1777C89.9374 85.98 90.0865 85.8066 90.2648 85.6675C90.4357 85.5331 90.6315 85.4343 90.8407 85.3767C91.0499 85.3191 91.2684 85.3039 91.4835 85.3321L91.9796 85.3967L92.9933 85.5285L93.7074 85.6218L93.7217 85.6238L95.8276 85.8979L95.9787 85.2779L96.0066 85.2675L96.8932 84.9405L99.9596 83.8094L99.9674 83.8068L100.169 83.7324L100.193 83.7716C100.2 83.7833 100.207 83.7951 100.214 83.8068C100.413 84.1665 100.576 84.5457 100.698 84.9385C100.905 85.5803 101.075 86.2333 101.207 86.8945C101.213 86.9232 101.218 86.9493 101.223 86.9728L101.225 86.98C101.227 86.9911 101.228 86.9983 101.229 87.0002C101.3 87.2965 101.25 87.6581 101.121 88.0164Z" fill="#2F2E41"/>
<path d="M101.25 85.9438C101.24 85.902 101.228 85.8596 101.215 85.8185C101.112 85.5071 100.992 85.2016 100.856 84.9035C100.703 84.5641 100.519 84.2006 100.301 83.807C100.195 83.6165 100.081 83.4183 99.9594 83.2125C99.8984 83.1094 99.8351 83.0043 99.7693 82.8972C99.7668 82.8923 99.7639 82.8875 99.7609 82.8829L99.7421 82.8516L96.7081 83.2601L95.5783 83.4122L95.5108 83.9787L95.4946 84.119C95.494 84.119 95.494 84.119 95.4946 84.1197L95.4492 84.5021V84.5028L95.3889 85.0079L95.3837 85.0073L93.7072 84.7886L91.9794 84.5635L91.0513 84.4427C90.8362 84.4145 90.6177 84.4297 90.4085 84.4872C90.1993 84.5448 90.0035 84.6437 89.8327 84.7782C89.6543 84.9173 89.5053 85.0907 89.3943 85.2884C89.2833 85.4861 89.2125 85.704 89.186 85.9295C89.1802 85.9751 89.1763 86.0221 89.1744 86.0685L88.2988 88.1563C87.7749 89.4049 87.4412 90.726 87.3091 92.0748L86.667 94.1404L86.7584 94.1489L88.1191 94.2762L88.4784 94.3101L89.2697 93.1478C89.3598 93.0153 89.4454 92.8789 89.5252 92.7392C89.6566 92.5111 89.7733 92.2748 89.8748 92.0317L91.5864 87.9331C91.7187 87.9559 91.8497 87.9777 91.9794 87.9984C92.5793 88.0963 93.1553 88.1761 93.7072 88.2379C95.5018 88.4395 97.0557 88.4552 98.4391 88.2842C98.8276 88.2366 99.2031 88.1739 99.5657 88.0962C99.6986 88.0682 99.8299 88.0379 99.9594 88.0055C99.9898 87.9984 100.02 87.9912 100.05 87.9833C100.318 87.9138 100.564 87.7777 100.766 87.5875C100.968 87.3973 101.12 87.1591 101.207 86.8947C101.311 86.5883 101.326 86.2584 101.25 85.9438V85.9438Z" fill="#2F2E41"/>
<path d="M87.1224 96.4199L86.167 95.9592L86.0172 95.8867L85.7779 96.478L84.1072 96.8481C84.0246 96.8663 83.9499 96.9106 83.8941 96.9746C83.8384 97.0385 83.8044 97.1188 83.7971 97.2036C83.7899 97.2884 83.8098 97.3732 83.8539 97.4458C83.898 97.5185 83.964 97.575 84.0423 97.6071L85.6748 98.2774L86.193 97.8081L86.0659 98.4379L86.6807 98.6905L87.3546 96.5322L87.1224 96.4199Z" fill="#2F2E41"/>
<path d="M92.9934 95.5093L93.0544 95.6646H92.9934V95.5093Z" fill="#2F2E41"/>
<path d="M92.6607 95.6979L91.6597 96.0469L91.5026 96.1015L91.746 96.6911L90.8176 98.137C90.7716 98.2085 90.7495 98.2928 90.7546 98.3778C90.7597 98.4627 90.7916 98.5438 90.8458 98.6092C90.8999 98.6746 90.9734 98.7208 91.0555 98.7412C91.1376 98.7615 91.2241 98.7549 91.3022 98.7223L92.9308 98.0427L92.9709 97.3424L93.321 97.8799L93.9345 97.624L92.9042 95.6133L92.6607 95.6979Z" fill="#2F2E41"/>
<path d="M101 86.8896C100.941 86.8895 100.882 86.8749 100.83 86.847L95.5474 84.0694L95.4864 83.818L95.3713 83.0223L95.3729 83.0148L95.8753 80.6841C95.8661 80.6641 95.8468 80.6313 95.8251 80.5942C95.6008 80.2118 94.9183 79.048 96.2209 77.4455L98.508 74.7622L100.471 74.6772L100.493 74.7056C101.018 75.3686 101.372 76.1517 101.524 76.9855C101.675 77.8193 101.62 78.6778 101.362 79.4848L101.158 83.1995L101.377 83.9496C101.505 84.3905 101.484 84.8617 101.317 85.2891L101.367 86.5038C101.369 86.5536 101.361 86.6033 101.344 86.6499C101.326 86.6965 101.299 86.7391 101.265 86.7751C101.231 86.8111 101.19 86.8398 101.144 86.8594C101.099 86.8791 101.05 86.8894 101 86.8896L101 86.8896Z" fill="#3F3D56"/>
<path d="M96.4183 89.9526C96.5078 89.8994 96.5846 89.8272 96.6433 89.7409C96.702 89.6545 96.7412 89.5563 96.7582 89.4531C96.7751 89.3499 96.7693 89.2443 96.7413 89.1436C96.7132 89.0429 96.6636 88.9496 96.5958 88.8702L97.8658 86.6724L96.555 86.7467L95.5499 88.8225C95.4251 88.9458 95.3495 89.111 95.3376 89.2867C95.3257 89.4624 95.3782 89.6364 95.4853 89.7757C95.5923 89.915 95.7464 90.01 95.9184 90.0426C96.0903 90.0752 96.2682 90.0432 96.4183 89.9526L96.4183 89.9526Z" fill="#FFB7B7"/>
<path d="M96.9309 88.3369L95.7573 87.4171L97.8898 83.2585L97.0908 77.9627C97.0513 77.7009 97.0695 77.4336 97.1443 77.1798C97.219 76.9259 97.3483 76.6917 97.5231 76.4938C97.6979 76.2959 97.9138 76.1391 98.1556 76.0346C98.3973 75.9301 98.659 75.8804 98.9219 75.8892V75.8892C99.3969 75.9054 99.8461 76.1106 100.171 76.4597C100.496 76.8089 100.67 77.2734 100.654 77.7514L100.457 83.7814L96.9309 88.3369Z" fill="#3F3D56"/>
<path d="M97.249 73.6473V71.6926C97.2486 70.998 97.5224 70.3316 98.0102 69.8401C98.498 69.3486 99.1598 69.0722 99.8501 69.0718C100.54 69.0713 101.203 69.3469 101.691 69.8377C102.18 70.3286 102.454 70.9946 102.455 71.6893V71.6926C102.913 72.6546 102.626 73.1119 102.455 73.6473C102.454 73.7405 102.418 73.8299 102.352 73.8958C102.287 73.9617 102.198 73.9988 102.105 73.9989H97.5987C97.506 73.9988 97.4172 73.9618 97.3516 73.8958C97.2861 73.8299 97.2492 73.7405 97.249 73.6473V73.6473Z" fill="#2F2E41"/>
<path d="M98.9983 73.8718C100.074 73.8718 100.947 72.994 100.947 71.9112C100.947 70.8285 100.074 69.9507 98.9983 69.9507C97.9223 69.9507 97.05 70.8285 97.05 71.9112C97.05 72.994 97.9223 73.8718 98.9983 73.8718Z" fill="#FFB7B7"/>
<path d="M101.037 72.4253C101.02 72.4225 101.002 72.4187 100.984 72.4159C100.68 72.3617 100.377 72.3084 100.074 72.2532L100.046 71.5621L99.6786 72.1812C98.8413 72.4608 98.0578 72.3028 97.3208 71.9539C97.0777 71.8378 96.8419 71.7069 96.6145 71.5621C96.6764 71.1798 96.8225 70.8164 97.042 70.4982C97.2614 70.1801 97.5488 69.9154 97.8831 69.7234C97.911 69.7075 97.9379 69.6935 97.9658 69.6795C97.9659 69.6795 97.966 69.6794 97.9662 69.6794C97.9663 69.6794 97.9664 69.6793 97.9665 69.6792C97.9665 69.6791 97.9666 69.679 97.9667 69.6789C97.9667 69.6788 97.9667 69.6787 97.9667 69.6785C98.0141 69.6561 98.0625 69.6346 98.1108 69.6149C98.4891 69.4662 98.9017 69.4285 99.3005 69.5063C99.6992 69.5841 100.068 69.7742 100.364 70.0545C100.958 70.6259 101.226 71.5695 101.037 72.4253Z" fill="#2F2E41"/>
</g>
<defs>
<filter id="filter0_d_313_254" x="0.70874" y="0.537012" width="161.165" height="161.165" filterUnits="userSpaceOnUse" color-interpolation-filters="sRGB">
<feFlood flood-opacity="0" result="BackgroundImageFix"/>
<feColorMatrix in="SourceAlpha" type="matrix" values="0 0 0 0 0 0 0 0 0 0 0 0 0 0 0 0 0 0 127 0" result="hardAlpha"/>
<feOffset dy="8.05825"/>
<feGaussianBlur stdDeviation="20.1456"/>
<feComposite in2="hardAlpha" operator="out"/>
<feColorMatrix type="matrix" values="0 0 0 0 1 0 0 0 0 0.4 0 0 0 0 0.521569 0 0 0 0.35 0"/>
<feBlend mode="normal" in2="BackgroundImageFix" result="effect1_dropShadow_313_254"/>
<feBlend mode="normal" in="SourceGraphic" in2="effect1_dropShadow_313_254" result="shape"/>
</filter>
<clipPath id="clip0_313_254">
<rect width="56.4078" height="53.0897" fill="white" transform="translate(54.699 45.6631)"/>
</clipPath>
</defs>
</svg>
